# xmcd
#
# Track frame offsets: 
#        150
#        24502
#        59627
#        70237
#        90115
#        105952
#        122167
#        146695
#        173785
#        206170
#
# Disc length: 2983 seconds
#
# Revision: 12
# Processed by: cddbd v1.5.2PL0 Copyright (c) Steve Scherf et al.
# Submitted via: ExactAudioCopyFreeDBPlugin 1.0
#
DISCID=870ba50a
DTITLE=Muddy Waters - Hard Again
DYEAR=2011
DGENRE=Blues
TTITLE0=Mannish Boy
TTITLE1=Bus Driver
TTITLE2=I Want to Be Loved
TTITLE3=Jealous Hearted Man
TTITLE4=I Can't Be Satisfied
TTITLE5=The Blues Had a Baby and They Named It Rock and Roll Pt 2
TTITLE6=Deep Down in Florida
TTITLE7=Crosseyed Cat
TTITLE8=Little Girl
TTITLE9=Walking Through the Park
EXTD=
EXTT0=
EXTT1=
EXTT2=
EXTT3=
EXTT4=
EXTT5=
EXTT6=
EXTT7=
EXTT8=
EXTT9=
PLAYORDER=
